<?xml version="1.0" encoding="UTF-8"?>
<svg width="251px" height="51px" viewBox="0 0 251 51" version="1.1" xmlns="http://www.w3.org/2000/svg" xmlns:xlink="http://www.w3.org/1999/xlink">
    <title>Group 46</title>
    <defs>
        <polygon id="path-1" points="0 0 6.50678438 0 6.50678438 6.29030005 0 6.29030005"></polygon>
    </defs>
    <g id="Symbols" stroke="none" stroke-width="1" fill="none" fill-rule="evenodd">
        <g id="Header_Dark" transform="translate(-265, -37)">
            <g id="Group-46" transform="translate(265, 37)">
                <path d="M115.658162,42.0473372 L115.717442,8.86509796 C115.725593,5.7277174 115.787096,3.15787713 116.526616,1.03126587 L116.648881,0.684230144 L116.282085,0.679050506 L110.597119,0.673870869 C95.2724599,38.2691614 95.2806109,38.2839604 94.106123,41.1549596 C93.6370688,39.9821416 77.9804408,0.684230144 77.9804408,0.684230144 L71.3225392,0.684230144 L71.4522145,1.03570556 C71.8397585,2.0760728 72.2398995,3.14751786 72.2258205,8.8702776 L72.1791373,41.9948008 C72.1724683,45.1321814 72.1117062,47.7242201 71.3707043,49.856011 L71.248439,50.2030467 L78.479876,50.1963872 L78.4079989,49.8693301 C77.7611043,47.1404009 77.7366512,46.2339643 77.641803,41.8912081 L77.5543647,38.3660946 C77.5543647,38.3660946 77.0438145,15.8738878 76.9111751,9.83665001 C77.9167146,12.4323885 92.8056647,50.6980721 92.8056647,50.6980721 L94.7767296,50.7039917 C94.7767296,50.7039917 110.096943,12.4323885 111.122489,9.88104691 C111.044684,12.5470804 110.288862,40.0420774 110.288862,40.0420774 C110.130288,46.8200033 110.059152,47.5614315 109.324819,49.8745097 L109.219597,50.2171058 L116.559961,50.2333846 L116.432509,49.8745097 C116.045706,48.8430219 115.645565,47.7656572 115.658162,42.0473372" id="Fill-1" fill="#FFFFFF"></path>
                <path d="M161.857922,50.2033427 L161.70083,49.8385482 C161.215474,48.5199605 160.922778,47.7200764 160.935375,37.7781317 C160.935375,37.7781317 160.967238,24.2888752 160.967238,24.1260866 C161.616356,23.175993 163.842325,20.3397714 167.557709,20.088189 C168.644017,20.0149341 170.101568,20.2162001 171.469457,20.6231716 L171.808095,20.7215847 L171.836994,15.9222804 L171.705096,15.8445858 C170.568399,15.1941713 168.972281,15.0173042 168.210531,15.0173042 C164.685586,15.0091842 162.150618,17.5568261 160.925742,19.1284761 C160.868685,18.1280661 160.664169,15.0868788 160.664169,15.0868788 L155.10295,17.6093624 L155.182237,17.8343066 C155.755772,19.5672654 156.041799,20.4404044 156.022533,31.6225023 L156.0129,37.8380676 C155.991411,47.7844519 155.69501,48.5798963 155.203726,49.9036637 L155.097022,50.2336806 L161.857922,50.2033427 Z" id="Fill-3" fill="#FFFFFF"></path>
                <path d="M182.039404,37.7506797 L182.0809,15.1304618 L181.722255,15.2865908 L176.139547,17.6418461 L176.394452,18.5246044 L176.784219,20.1066137 C176.987995,21.5376736 176.996146,22.8577413 177.042829,30.1995078 L177.048757,31.5906105 L177.036901,37.759559 C177.024304,47.5882916 176.742723,48.4569909 176.318129,49.7829781 L176.186972,50.2032687 L182.855988,50.1966092 L182.727054,49.8184956 C182.304683,48.541345 182.024584,47.6896645 182.039404,37.7506797" id="Fill-5" fill="#FFFFFF"></path>
                <path d="M236.919112,45.9140107 C234.507151,46.4216152 229.99445,46.4171755 228.516151,46.410516 L220.508145,46.2477274 L219.035774,46.3150627 C219.035774,46.3150627 218.628964,46.3350413 218.242161,46.3528 C218.865343,45.4885405 240.112089,15.6612266 240.112089,15.6612266 L239.605244,15.6612266 L213.92212,15.670846 C212.958077,15.6664063 212.778754,16.1806703 212.488282,17.2543352 C212.488282,17.2595148 211.726532,20.6514376 211.726532,20.6514376 L212.164464,20.5049279 C214.837998,19.644368 217.580446,19.6473278 227.792934,19.6673064 C230.122643,19.6724861 230.816221,19.6769258 232.241909,19.5718531 C231.596496,20.4583111 209.924415,50.2034907 209.924415,50.2034907 L234.376735,50.2508474 C237.000623,50.2508474 237.847588,50.2034907 238.295153,49.1379652 L240.175075,44.7937291 L239.570417,45.0549308 C238.36703,45.5854737 237.809797,45.78156 236.919112,45.9140107" id="Fill-7" fill="#FFFFFF"></path>
                <path d="M187.600919,15.6334786 L187.582394,20.130884 C187.582394,20.130884 193.402223,20.1382835 193.889802,20.1427232 C193.889802,20.6510676 193.849047,41.6796569 193.849047,41.6796569 C193.838673,44.6882864 193.823853,50.9630476 201.287224,50.9808063 C204.008182,50.9808063 205.938492,50.2031207 206.844737,49.7288139 L206.980341,49.6622186 L207.002571,45.2055103 L206.580941,45.5044494 C204.489834,47.0161636 202.861852,47.0124639 202.241634,47.0124639 C199.382108,46.9998848 198.841176,44.951708 198.853773,41.1690926 C198.853773,41.1690926 198.884896,20.659947 198.887119,20.1479028 C199.378403,20.1479028 206.309734,20.1427232 206.309734,20.1427232 L206.320108,15.6475376 C206.320108,15.6475376 199.397669,15.6438378 198.916759,15.6438378 L198.916759,5.37187628 L198.535143,5.56352288 L193.909809,7.90027944 C193.909809,7.90027944 193.894989,15.1584318 193.894989,15.6475376 L187.600919,15.6334786 Z" id="Fill-9" fill="#FFFFFF"></path>
                <path d="M142.841148,33.9500835 C142.832996,37.2043759 142.208332,46.7097511 133.26444,46.7719067 C129.306008,46.8059443 127.165253,44.765907 127.174118,41.0661658 C127.187484,34.0114992 135.614898,33.2049556 141.952686,33.2182747 L142.847076,33.2182747 L142.841148,33.9500835 Z M147.923679,37.9199058 L147.945168,28.0023795 C147.96147,19.2465719 144.071952,15.1657573 135.698631,15.1464983 C132.878378,15.140599 128.730249,16.4266291 126.450187,18.0167779 L126.331626,18.0996521 L126.325698,23.5116336 L126.678415,23.2526517 C128.845105,21.4834354 131.551984,19.4937146 134.704206,19.5003741 C140.011261,19.5099934 142.867083,21.7623959 142.853004,27.6620033 L142.853004,29.124881 C142.629962,29.124881 142.345417,29.1204413 142.345417,29.1204413 C135.21031,29.1071222 121.937485,29.0864037 121.91896,41.1875173 C121.91896,42.8250228 122.434698,50.9807323 132.940622,50.9999855 C136.490762,51.0058906 141.064966,49.2041166 143.212389,45.3008896 C143.218317,47.0708458 143.357626,48.283621 143.735537,50.0247192 L143.775551,50.2060065 L149.148555,50.2060065 L148.93737,49.8471316 C148.443862,48.4656483 147.904413,47.6383861 147.923679,37.9199058 L147.923679,37.9199058 Z" id="Fill-11" fill="#FFFFFF"></path>
                <g id="Group-15" transform="translate(176.3779, 0)">
                    <mask id="mask-2" fill="white">
                        <use href="#path-1"></use>
                    </mask>
                    <g id="Clip-14"></g>
                    <path d="M3.21895919,-1.06594016e-05 C1.4175837,-0.00443968948 0.00375217681,1.37852358 0,3.13738057 C-0.00958585642,4.84074143 1.4575978,6.28586036 3.20339815,6.29030005 C5.02033468,6.29030005 6.49715136,4.88143859 6.50678438,3.14773984 C6.50678438,1.38814291 5.06108978,0.00443968948 3.21895919,-1.06594016e-05" id="Fill-13" fill="#FFFFFF" mask="url(#mask-2)"></path>
                </g>
                <path d="M32.6510608,31.2629614 L47.2754732,36.1111023 C48.8486201,32.8508904 49.7556064,29.2110849 49.7556064,25.3507749 C49.7556064,15.4939243 43.989871,7.0015383 35.6543412,2.98805901 L30.9541665,27.5158635 C30.6407227,29.1711277 31.3950626,30.8478505 32.6510608,31.2629614" id="Fill-16" fill="#FFFFFF"></path>
                <path d="M34.4642182,2.42651229 C34.5435054,2.45980996 34.6213106,2.49458753 34.6998568,2.52862514 C34.6213106,2.49532747 34.5435054,2.45980996 34.4642182,2.42651229" id="Fill-18" fill="#FFFFFF"></path>
                <path d="M1.10868696,18.0034588 C1.11313297,17.9893998 1.11609698,17.9738609 1.12054299,17.9590619 C1.11609698,17.9738609 1.11313297,17.9886599 1.10868696,18.0034588" id="Fill-20" fill="#FFFFFF"></path>
                <path d="M20.4153419,24.7085739 L0.623182553,19.888551 C0.226746565,21.6488878 0,23.4721203 0,25.3508489 C0,38.6284803 10.439975,49.4450438 23.5549667,50.1346755 L23.5453337,28.5940421 C23.5431107,26.8662629 22.1389122,25.1325642 20.4153419,24.7085739" id="Fill-22" fill="#FFFFFF"></path>
                <path d="M28.1729643,17.0043807 L33.9572247,2.24093327 C31.1406767,1.13619053 28.0840441,0.50871442 24.8747651,0.50871442 C13.7827084,0.50871442 4.38754603,7.77056652 1.18197205,17.7909457 L23.5446668,19.9708332 C25.3912434,20.1469409 27.4623435,18.8187338 28.1729643,17.0043807" id="Fill-24" fill="#FFFFFF"></path>
                <path d="M46.6587374,37.3494797 C46.7291325,37.2214687 46.7965637,37.0919777 46.8647359,36.9624868 C46.7958227,37.0912378 46.7298735,37.2222086 46.6587374,37.3494797" id="Fill-26" fill="#FFFFFF"></path>
                <path d="M32.9599844,37.5218137 C33.8766037,38.7664066 33.6794972,40.4638479 32.5250163,41.3081289 C31.3690535,42.1568495 29.6906843,41.8320122 28.772583,40.591859 C27.8589277,39.3465261 28.0567752,37.6483448 29.2164431,36.8070237 C30.367219,35.9538633 32.0500342,36.2816604 32.9599844,37.5218137 M26.6673967,37.9065868 L25.6826053,50.1608697 C34.5398004,49.8759896 42.2150975,44.981232 46.3928659,37.7874551 L30.6465767,34.6981712 C28.6206776,34.2971192 26.8385682,35.7377985 26.6673967,37.9065868" id="Fill-28" fill="#FFFFFF"></path>
                <path d="M1.16648511,17.7895398 C1.14796006,17.8450359 1.13832704,17.9034918 1.12054299,17.9589879 C1.13832704,17.9020119 1.1642621,17.8479957 1.18204615,17.7910197 L1.16648511,17.7895398 Z" id="Fill-30" fill="#FFFFFF"></path>
                <path d="M46.422506,37.7931527 C46.5069802,37.6488628 46.5773754,37.4956935 46.6588856,37.3491838 C46.5758934,37.4993932 46.4788221,37.6392435 46.3928659,37.7872331 L46.422506,37.7931527 Z" id="Fill-32" fill="#FFFFFF"></path>
                <path d="M0.600952497,19.8835193 L0.623182553,19.888699 C0.766195909,19.2530834 0.918101288,18.6196877 1.10853876,18.0033108 C0.912914275,18.6182078 0.738778841,19.2479038 0.600952497,19.8835193" id="Fill-34" fill="#FFFFFF"></path>
                <path d="M23.5550408,50.1348235 L23.5550408,50.1681212 C23.9974189,50.2014188 24.431646,50.2102982 24.8747651,50.2102982 C25.1474538,50.2102982 25.4119914,50.2058585 25.6794931,50.1947593 L25.6824571,50.1607217 C25.4119914,50.1696011 25.1474538,50.2014188 24.8747651,50.2014188 C24.429423,50.2014188 23.9944549,50.1577619 23.5550408,50.1348235" id="Fill-36" fill="#FFFFFF"></path>
                <path d="M33.9691548,2.21155732 L33.9572988,2.24115525 C34.1247652,2.30701064 34.2989007,2.35732713 34.4641441,2.42614231 C34.2981597,2.35658718 34.1373623,2.27741271 33.9691548,2.21155732" id="Fill-38" fill="#FFFFFF"></path>
                <path d="M35.6624923,2.9467699 C35.3475665,2.80026015 35.0215257,2.66780941 34.6999309,2.52869914 C35.0252307,2.66854936 35.3364514,2.83503771 35.6543412,2.988207 L35.6624923,2.9467699 Z" id="Fill-40" fill="#FFFFFF"></path>
                <path d="M47.3119305,36.1230155 L47.2756214,36.1111763 C47.1385361,36.3945765 47.0118247,36.6846362 46.8643654,36.9628568 C47.0140477,36.6831563 47.1755861,36.4101154 47.3119305,36.1230155" id="Fill-42" fill="#FFFFFF"></path>
                <path d="M245.77075,18.072052 L246.771843,18.072052 C247.419479,18.072052 247.835181,17.9410812 247.835181,17.2758677 C247.835181,16.6913086 247.308329,16.5159409 246.771843,16.5159409 L245.77075,16.5159409 L245.77075,18.072052 Z M244.935641,15.8640464 L246.90967,15.8640464 C248.084158,15.8640464 248.663621,16.3353935 248.663621,17.3091654 C248.663621,18.1327278 248.146402,18.7261663 247.344638,18.7261663 L248.797002,20.9918878 L247.910022,20.9918878 L246.48063,18.7261663 L245.77075,18.7261663 L245.77075,20.9918878 L244.935641,20.9918878 L244.935641,15.8640464 Z M246.628089,22.1573063 C248.635463,22.1573063 250.163409,20.5345998 250.163409,18.4309269 C250.163409,16.3353935 248.635463,14.7112071 246.628089,14.7112071 C244.581442,14.7112071 243.069057,16.3353935 243.069057,18.4309269 C243.069057,20.5345998 244.581442,22.1573063 246.628089,22.1573063 L246.628089,22.1573063 Z M246.619197,14.0570928 C249.034122,14.0570928 251,16.0253552 251,18.4309269 C251,20.8512976 249.034122,22.8136404 246.619197,22.8136404 C244.193157,22.8136404 242.236171,20.8512976 242.236171,18.4309269 C242.236171,16.0253552 244.193157,14.0570928 246.619197,14.0570928 L246.619197,14.0570928 Z" id="Fill-44" fill="#FFFFFF"></path>
            </g>
        </g>
    </g>
</svg>